<?xml version="1.0" encoding="UTF-8"?>
<svg xmlns="http://www.w3.org/2000/svg" xmlns:xlink="http://www.w3.org/1999/xlink" width="379pt" height="165pt" viewBox="0 0 379 165" version="1.1">
<g id="surface1">
<path style="fill-rule:nonzero;fill:rgb(100%,100%,100%);fill-opacity:1;stroke-width:1;stroke-linecap:round;stroke-linejoin:round;stroke:rgb(0%,0%,0%);stroke-opacity:1;stroke-miterlimit:10;" d="M 8.075 246.5 L 30.575 246.5 L 30.575 269 L 8.075 269 Z M 8.075 246.5 " transform="matrix(1.25,0,0,1.25,-8.75,-217.5)"/>
<path style=" stroke:none;fill-rule:nonzero;fill:rgb(0%,0%,0%);fill-opacity:1;" d="M 10.871094 100.390625 L 10.871094 100.683594 C 11.085938 100.664062 11.164062 100.664062 11.261719 100.664062 C 11.613281 100.664062 11.789062 100.898438 11.90625 101.445312 L 12.21875 103.144531 L 11.730469 103.945312 C 11.496094 104.335938 11.398438 104.394531 11.203125 104.394531 C 10.96875 104.394531 10.832031 104.160156 10.5 104.160156 C 10.148438 104.160156 9.894531 104.433594 9.894531 104.804688 C 9.894531 105.195312 10.167969 105.449219 10.597656 105.449219 C 11.164062 105.449219 11.417969 105.234375 12.082031 104.160156 L 12.355469 103.710938 C 12.589844 105 12.882812 105.449219 13.449219 105.449219 C 13.976562 105.449219 14.445312 105.078125 15.128906 104.082031 L 14.894531 103.925781 C 14.464844 104.492188 14.347656 104.589844 14.152344 104.589844 C 13.9375 104.589844 13.820312 104.433594 13.722656 104.003906 L 13.371094 102.226562 C 13.722656 101.582031 14.152344 101.171875 14.40625 101.171875 C 14.660156 101.171875 14.777344 101.40625 15.050781 101.40625 C 15.382812 101.40625 15.675781 101.132812 15.675781 100.800781 C 15.675781 100.449219 15.382812 100.117188 15.03125 100.117188 C 14.503906 100.117188 14.132812 100.390625 13.253906 101.660156 C 13.078125 100.703125 12.941406 100.429688 12.726562 100.117188 Z M 10.871094 100.390625 "/>
<path style=" stroke:none;fill-rule:nonzero;fill:rgb(0%,0%,0%);fill-opacity:1;" d="M 19.542969 105.644531 C 18.859375 105.78125 18.820312 105.761719 18.058594 105.9375 L 17.863281 105.976562 L 17.863281 106.113281 C 18.019531 106.09375 18.214844 106.09375 18.371094 106.09375 L 18.390625 106.09375 C 18.585938 106.09375 18.703125 106.191406 18.703125 106.367188 C 18.703125 106.425781 18.683594 106.523438 18.644531 106.679688 L 17.453125 110.957031 C 17.355469 111.289062 17.160156 111.386719 16.457031 111.425781 L 16.457031 111.5625 L 18.898438 111.5625 L 18.898438 111.425781 L 18.722656 111.425781 C 18.332031 111.425781 18.136719 111.347656 18.136719 111.152344 C 18.136719 111.054688 18.234375 110.722656 18.292969 110.507812 L 19.5625 105.957031 C 19.582031 105.839844 19.601562 105.761719 19.601562 105.703125 C 19.601562 105.664062 19.582031 105.644531 19.5625 105.644531 Z M 19.542969 105.644531 "/>
<path style="fill-rule:nonzero;fill:rgb(69.803922%,85.098039%,100%);fill-opacity:1;stroke-width:1;stroke-linecap:round;stroke-linejoin:round;stroke:rgb(0%,0%,0%);stroke-opacity:1;stroke-miterlimit:10;" d="M 262.215625 213.796875 C 266.609375 218.1875 266.609375 225.3125 262.215625 229.703125 C 257.81875 234.096875 250.7 234.096875 246.30625 229.703125 C 241.9125 225.3125 241.9125 218.1875 246.30625 213.796875 C 250.7 209.403125 257.81875 209.403125 262.215625 213.796875 " transform="matrix(1.25,0,0,1.25,-8.75,-217.5)"/>
<path style="fill-rule:nonzero;fill:rgb(100%,100%,100%);fill-opacity:1;stroke-width:1;stroke-linecap:round;stroke-linejoin:round;stroke:rgb(0%,0%,0%);stroke-opacity:1;stroke-miterlimit:10;" d="M 105.925 246.5 L 128.425 246.5 L 128.425 269 L 105.925 269 Z M 105.925 246.5 " transform="matrix(1.25,0,0,1.25,-8.75,-217.5)"/>
<path style=" stroke:none;fill-rule:nonzero;fill:rgb(0%,0%,0%);fill-opacity:1;" d="M 137.757812 104.335938 C 137.269531 105.039062 137.054688 105.273438 136.917969 105.273438 C 136.820312 105.273438 136.722656 105.175781 136.722656 105.097656 C 136.722656 105.058594 136.722656 105.039062 136.761719 104.960938 L 137.425781 102.910156 C 137.640625 102.207031 137.757812 101.796875 137.757812 101.582031 C 137.757812 101.054688 137.445312 100.742188 136.898438 100.742188 C 136.136719 100.742188 135.609375 101.171875 134.496094 102.753906 L 135.707031 98.066406 C 134.847656 98.242188 134.28125 98.339844 133.363281 98.417969 L 133.363281 98.710938 L 133.617188 98.710938 C 133.929688 98.710938 134.085938 98.828125 134.085938 99.082031 C 134.085938 99.179688 134.046875 99.375 133.96875 99.609375 L 132.269531 105.9375 L 133.617188 105.9375 C 134.203125 103.964844 134.417969 103.417969 134.964844 102.617188 C 135.453125 101.894531 135.84375 101.542969 136.15625 101.542969 C 136.292969 101.542969 136.371094 101.601562 136.371094 101.777344 C 136.371094 101.855469 136.351562 101.953125 136.292969 102.128906 L 136.078125 102.792969 C 135.511719 104.453125 135.394531 104.863281 135.394531 105.3125 C 135.394531 105.761719 135.6875 106.035156 136.136719 106.035156 C 136.820312 106.035156 137.269531 105.664062 138.011719 104.511719 Z M 137.757812 104.335938 "/>
<path style=" stroke:none;fill-rule:nonzero;fill:rgb(0%,0%,0%);fill-opacity:1;" d="M 142.175781 105.019531 C 141.492188 105.15625 141.453125 105.136719 140.691406 105.3125 L 140.496094 105.351562 L 140.496094 105.488281 C 140.652344 105.46875 140.847656 105.46875 141.003906 105.46875 L 141.023438 105.46875 C 141.21875 105.46875 141.335938 105.566406 141.335938 105.742188 C 141.335938 105.800781 141.316406 105.898438 141.277344 106.054688 L 140.085938 110.332031 C 139.988281 110.664062 139.792969 110.761719 139.089844 110.800781 L 139.089844 110.9375 L 141.53125 110.9375 L 141.53125 110.800781 L 141.355469 110.800781 C 140.964844 110.800781 140.769531 110.722656 140.769531 110.527344 C 140.769531 110.429688 140.867188 110.097656 140.925781 109.882812 L 142.195312 105.332031 C 142.214844 105.214844 142.234375 105.136719 142.234375 105.078125 C 142.234375 105.039062 142.214844 105.019531 142.195312 105.019531 Z M 142.175781 105.019531 "/>
<path style="fill:none;stroke-width:1;stroke-linecap:round;stroke-linejoin:round;stroke:rgb(0%,0%,0%);stroke-opacity:1;stroke-miterlimit:10;" d="M 128.425 257.75 L 132.440625 257.75 M 150.04375 257.75 L 150.95625 257.75 " transform="matrix(1.25,0,0,1.25,-8.75,-217.5)"/>
<path style="fill:none;stroke-width:1;stroke-linecap:butt;stroke-linejoin:miter;stroke:rgb(0%,0%,0%);stroke-opacity:1;stroke-miterlimit:10;" d="M 154.95625 257.75 L 150.95625 257.75 M 150.95625 256.25 L 154.95625 257.75 L 150.95625 259.25 " transform="matrix(1.25,0,0,1.25,-8.75,-217.5)"/>
<path style="fill:none;stroke-width:1;stroke-linecap:round;stroke-linejoin:round;stroke:rgb(0%,0%,0%);stroke-opacity:1;stroke-miterlimit:10;" d="M 128.425 221.75 L 136.94375 221.75 M 147.94375 221.75 L 151.05625 221.75 " transform="matrix(1.25,0,0,1.25,-8.75,-217.5)"/>
<path style="fill:none;stroke-width:1;stroke-linecap:butt;stroke-linejoin:miter;stroke:rgb(0%,0%,0%);stroke-opacity:1;stroke-miterlimit:10;" d="M 155.05625 221.75 L 151.05625 221.75 M 151.05625 220.25 L 155.05625 221.75 L 151.05625 223.25 " transform="matrix(1.25,0,0,1.25,-8.75,-217.5)"/>
<path style="fill-rule:nonzero;fill:rgb(100%,100%,100%);fill-opacity:1;stroke-width:1;stroke-linecap:round;stroke-linejoin:round;stroke:rgb(0%,0%,0%);stroke-opacity:1;stroke-miterlimit:10;" d="M 8.171875 210.5 L 30.671875 210.5 L 30.671875 233 L 8.171875 233 Z M 8.171875 210.5 " transform="matrix(1.25,0,0,1.25,-8.75,-217.5)"/>
<path style=" stroke:none;fill-rule:nonzero;fill:rgb(0%,0%,0%);fill-opacity:1;" d="M 10.996094 55.390625 L 10.996094 55.683594 C 11.210938 55.664062 11.289062 55.664062 11.386719 55.664062 C 11.738281 55.664062 11.914062 55.898438 12.03125 56.445312 L 12.34375 58.144531 L 11.855469 58.945312 C 11.621094 59.335938 11.523438 59.394531 11.328125 59.394531 C 11.09375 59.394531 10.957031 59.160156 10.625 59.160156 C 10.273438 59.160156 10.019531 59.433594 10.019531 59.804688 C 10.019531 60.195312 10.292969 60.449219 10.722656 60.449219 C 11.289062 60.449219 11.542969 60.234375 12.207031 59.160156 L 12.480469 58.710938 C 12.714844 60 13.007812 60.449219 13.574219 60.449219 C 14.101562 60.449219 14.570312 60.078125 15.253906 59.082031 L 15.019531 58.925781 C 14.589844 59.492188 14.472656 59.589844 14.277344 59.589844 C 14.0625 59.589844 13.945312 59.433594 13.847656 59.003906 L 13.496094 57.226562 C 13.847656 56.582031 14.277344 56.171875 14.53125 56.171875 C 14.785156 56.171875 14.902344 56.40625 15.175781 56.40625 C 15.507812 56.40625 15.800781 56.132812 15.800781 55.800781 C 15.800781 55.449219 15.507812 55.117188 15.15625 55.117188 C 14.628906 55.117188 14.257812 55.390625 13.378906 56.660156 C 13.203125 55.703125 13.066406 55.429688 12.851562 55.117188 Z M 10.996094 55.390625 "/>
<path style=" stroke:none;fill-rule:nonzero;fill:rgb(0%,0%,0%);fill-opacity:1;" d="M 17.03125 62.128906 C 17.34375 61.542969 17.792969 61.289062 18.320312 61.289062 C 19.003906 61.289062 19.355469 61.738281 19.355469 62.34375 C 19.355469 62.539062 19.335938 62.695312 19.277344 62.8125 C 19.0625 63.28125 18.671875 63.847656 18.085938 64.453125 L 16.25 66.40625 L 16.25 66.5625 L 19.355469 66.5625 L 19.785156 65.390625 L 19.648438 65.332031 C 19.433594 65.761719 19.257812 65.898438 18.75 65.898438 L 17.167969 65.898438 L 17.167969 65.859375 L 18.808594 64.179688 C 19.84375 63.105469 20.097656 62.714844 20.097656 62.128906 C 20.097656 61.289062 19.53125 60.644531 18.691406 60.644531 C 18.28125 60.644531 17.910156 60.761719 17.578125 61.015625 C 17.265625 61.25 17.070312 61.542969 16.855469 62.070312 Z M 17.03125 62.128906 "/>
<path style="fill-rule:nonzero;fill:rgb(100%,100%,100%);fill-opacity:1;stroke-width:1;stroke-linecap:round;stroke-linejoin:round;stroke:rgb(0%,0%,0%);stroke-opacity:1;stroke-miterlimit:10;" d="M 8.171875 174.5 L 30.671875 174.5 L 30.671875 197 L 8.171875 197 Z M 8.171875 174.5 " transform="matrix(1.25,0,0,1.25,-8.75,-217.5)"/>
<path style=" stroke:none;fill-rule:nonzero;fill:rgb(0%,0%,0%);fill-opacity:1;" d="M 10.996094 10.390625 L 10.996094 10.683594 C 11.210938 10.664062 11.289062 10.664062 11.386719 10.664062 C 11.738281 10.664062 11.914062 10.898438 12.03125 11.445312 L 12.34375 13.144531 L 11.855469 13.945312 C 11.621094 14.335938 11.523438 14.394531 11.328125 14.394531 C 11.09375 14.394531 10.957031 14.160156 10.625 14.160156 C 10.273438 14.160156 10.019531 14.433594 10.019531 14.804688 C 10.019531 15.195312 10.292969 15.449219 10.722656 15.449219 C 11.289062 15.449219 11.542969 15.234375 12.207031 14.160156 L 12.480469 13.710938 C 12.714844 15 13.007812 15.449219 13.574219 15.449219 C 14.101562 15.449219 14.570312 15.078125 15.253906 14.082031 L 15.019531 13.925781 C 14.589844 14.492188 14.472656 14.589844 14.277344 14.589844 C 14.0625 14.589844 13.945312 14.433594 13.847656 14.003906 L 13.496094 12.226562 C 13.847656 11.582031 14.277344 11.171875 14.53125 11.171875 C 14.785156 11.171875 14.902344 11.40625 15.175781 11.40625 C 15.507812 11.40625 15.800781 11.132812 15.800781 10.800781 C 15.800781 10.449219 15.507812 10.117188 15.15625 10.117188 C 14.628906 10.117188 14.257812 10.390625 13.378906 11.660156 C 13.203125 10.703125 13.066406 10.429688 12.851562 10.117188 Z M 10.996094 10.390625 "/>
<path style=" stroke:none;fill-rule:nonzero;fill:rgb(0%,0%,0%);fill-opacity:1;" d="M 17.714844 16.601562 C 18.027344 16.191406 18.320312 16.015625 18.691406 16.015625 C 19.160156 16.015625 19.453125 16.328125 19.453125 16.816406 C 19.453125 17.1875 19.277344 17.480469 18.925781 17.734375 C 18.535156 18.007812 18.164062 18.125 17.382812 18.261719 L 17.382812 18.398438 L 17.597656 18.398438 C 18.4375 18.398438 19.003906 18.847656 19.003906 19.785156 C 19.003906 20.195312 18.886719 20.625 18.671875 20.898438 C 18.4375 21.132812 18.144531 21.289062 17.851562 21.289062 C 17.675781 21.289062 17.460938 21.210938 17.226562 21.015625 C 16.992188 20.800781 16.835938 20.742188 16.660156 20.742188 C 16.445312 20.742188 16.289062 20.898438 16.289062 21.132812 C 16.289062 21.40625 16.640625 21.621094 17.265625 21.621094 C 17.890625 21.621094 18.457031 21.464844 18.886719 21.074219 C 19.375 20.644531 19.6875 20.039062 19.6875 19.335938 C 19.6875 18.710938 19.453125 18.300781 18.867188 18.085938 L 18.867188 18.046875 C 19.863281 17.695312 20.214844 17.363281 20.214844 16.71875 C 20.214844 16.09375 19.746094 15.644531 19.0625 15.644531 C 18.417969 15.644531 17.851562 15.917969 17.578125 16.5625 Z M 17.714844 16.601562 "/>
<path style="fill-rule:nonzero;fill:rgb(100%,100%,100%);fill-opacity:1;stroke-width:1;stroke-linecap:round;stroke-linejoin:round;stroke:rgb(0%,0%,0%);stroke-opacity:1;stroke-miterlimit:10;" d="M 105.925 210.5 L 128.425 210.5 L 128.425 233 L 105.925 233 Z M 105.925 210.5 " transform="matrix(1.25,0,0,1.25,-8.75,-217.5)"/>
<path style=" stroke:none;fill-rule:nonzero;fill:rgb(0%,0%,0%);fill-opacity:1;" d="M 137.757812 59.335938 C 137.269531 60.039062 137.054688 60.273438 136.917969 60.273438 C 136.820312 60.273438 136.722656 60.175781 136.722656 60.097656 C 136.722656 60.058594 136.722656 60.039062 136.761719 59.960938 L 137.425781 57.910156 C 137.640625 57.207031 137.757812 56.796875 137.757812 56.582031 C 137.757812 56.054688 137.445312 55.742188 136.898438 55.742188 C 136.136719 55.742188 135.609375 56.171875 134.496094 57.753906 L 135.707031 53.066406 C 134.847656 53.242188 134.28125 53.339844 133.363281 53.417969 L 133.363281 53.710938 L 133.617188 53.710938 C 133.929688 53.710938 134.085938 53.828125 134.085938 54.082031 C 134.085938 54.179688 134.046875 54.375 133.96875 54.609375 L 132.269531 60.9375 L 133.617188 60.9375 C 134.203125 58.964844 134.417969 58.417969 134.964844 57.617188 C 135.453125 56.894531 135.84375 56.542969 136.15625 56.542969 C 136.292969 56.542969 136.371094 56.601562 136.371094 56.777344 C 136.371094 56.855469 136.351562 56.953125 136.292969 57.128906 L 136.078125 57.792969 C 135.511719 59.453125 135.394531 59.863281 135.394531 60.3125 C 135.394531 60.761719 135.6875 61.035156 136.136719 61.035156 C 136.820312 61.035156 137.269531 60.664062 138.011719 59.511719 Z M 137.757812 59.335938 "/>
<path style=" stroke:none;fill-rule:nonzero;fill:rgb(0%,0%,0%);fill-opacity:1;" d="M 139.539062 61.503906 C 139.851562 60.917969 140.300781 60.664062 140.828125 60.664062 C 141.511719 60.664062 141.863281 61.113281 141.863281 61.71875 C 141.863281 61.914062 141.84375 62.070312 141.785156 62.1875 C 141.570312 62.65625 141.179688 63.222656 140.59375 63.828125 L 138.757812 65.78125 L 138.757812 65.9375 L 141.863281 65.9375 L 142.292969 64.765625 L 142.15625 64.707031 C 141.941406 65.136719 141.765625 65.273438 141.257812 65.273438 L 139.675781 65.273438 L 139.675781 65.234375 L 141.316406 63.554688 C 142.351562 62.480469 142.605469 62.089844 142.605469 61.503906 C 142.605469 60.664062 142.039062 60.019531 141.199219 60.019531 C 140.789062 60.019531 140.417969 60.136719 140.085938 60.390625 C 139.773438 60.625 139.578125 60.917969 139.363281 61.445312 Z M 139.539062 61.503906 "/>
<path style="fill-rule:nonzero;fill:rgb(100%,100%,100%);fill-opacity:1;stroke-width:1;stroke-linecap:round;stroke-linejoin:round;stroke:rgb(0%,0%,0%);stroke-opacity:1;stroke-miterlimit:10;" d="M 106.028125 174.5 L 128.528125 174.5 L 128.528125 197 L 106.028125 197 Z M 106.028125 174.5 " transform="matrix(1.25,0,0,1.25,-8.75,-217.5)"/>
<path style=" stroke:none;fill-rule:nonzero;fill:rgb(0%,0%,0%);fill-opacity:1;" d="M 137.882812 14.335938 C 137.394531 15.039062 137.179688 15.273438 137.042969 15.273438 C 136.945312 15.273438 136.847656 15.175781 136.847656 15.097656 C 136.847656 15.058594 136.847656 15.039062 136.886719 14.960938 L 137.550781 12.910156 C 137.765625 12.207031 137.882812 11.796875 137.882812 11.582031 C 137.882812 11.054688 137.570312 10.742188 137.023438 10.742188 C 136.261719 10.742188 135.734375 11.171875 134.621094 12.753906 L 135.832031 8.066406 C 134.972656 8.242188 134.40625 8.339844 133.488281 8.417969 L 133.488281 8.710938 L 133.742188 8.710938 C 134.054688 8.710938 134.210938 8.828125 134.210938 9.082031 C 134.210938 9.179688 134.171875 9.375 134.09375 9.609375 L 132.394531 15.9375 L 133.742188 15.9375 C 134.328125 13.964844 134.542969 13.417969 135.089844 12.617188 C 135.578125 11.894531 135.96875 11.542969 136.28125 11.542969 C 136.417969 11.542969 136.496094 11.601562 136.496094 11.777344 C 136.496094 11.855469 136.476562 11.953125 136.417969 12.128906 L 136.203125 12.792969 C 135.636719 14.453125 135.519531 14.863281 135.519531 15.3125 C 135.519531 15.761719 135.8125 16.035156 136.261719 16.035156 C 136.945312 16.035156 137.394531 15.664062 138.136719 14.511719 Z M 137.882812 14.335938 "/>
<path style=" stroke:none;fill-rule:nonzero;fill:rgb(0%,0%,0%);fill-opacity:1;" d="M 140.347656 15.976562 C 140.660156 15.566406 140.953125 15.390625 141.324219 15.390625 C 141.792969 15.390625 142.085938 15.703125 142.085938 16.191406 C 142.085938 16.5625 141.910156 16.855469 141.558594 17.109375 C 141.167969 17.382812 140.796875 17.5 140.015625 17.636719 L 140.015625 17.773438 L 140.230469 17.773438 C 141.070312 17.773438 141.636719 18.222656 141.636719 19.160156 C 141.636719 19.570312 141.519531 20 141.304688 20.273438 C 141.070312 20.507812 140.777344 20.664062 140.484375 20.664062 C 140.308594 20.664062 140.09375 20.585938 139.859375 20.390625 C 139.625 20.175781 139.46875 20.117188 139.292969 20.117188 C 139.078125 20.117188 138.921875 20.273438 138.921875 20.507812 C 138.921875 20.78125 139.273438 20.996094 139.898438 20.996094 C 140.523438 20.996094 141.089844 20.839844 141.519531 20.449219 C 142.007812 20.019531 142.320312 19.414062 142.320312 18.710938 C 142.320312 18.085938 142.085938 17.675781 141.5 17.460938 L 141.5 17.421875 C 142.496094 17.070312 142.847656 16.738281 142.847656 16.09375 C 142.847656 15.46875 142.378906 15.019531 141.695312 15.019531 C 141.050781 15.019531 140.484375 15.292969 140.210938 15.9375 Z M 140.347656 15.976562 "/>
<path style="fill-rule:nonzero;fill:rgb(100%,100%,100%);fill-opacity:1;stroke-width:1;stroke-linecap:round;stroke-linejoin:round;stroke:rgb(0%,0%,0%);stroke-opacity:1;stroke-miterlimit:10;" d="M 199.78125 246.5 L 222.28125 246.5 L 222.28125 269 L 199.78125 269 Z M 199.78125 246.5 " transform="matrix(1.25,0,0,1.25,-8.75,-217.5)"/>
<path style=" stroke:none;fill-rule:nonzero;fill:rgb(0%,0%,0%);fill-opacity:1;" d="M 253.1875 100.742188 C 252.425781 100.742188 251.703125 101.035156 251.136719 101.601562 C 250.453125 102.265625 250.003906 103.300781 250.003906 104.414062 C 250.003906 105.527344 250.804688 106.074219 251.859375 106.074219 C 252.601562 106.074219 253.265625 105.800781 253.832031 105.234375 C 254.515625 104.550781 255.003906 103.496094 255.003906 102.441406 C 255.003906 101.40625 254.320312 100.742188 253.246094 100.742188 Z M 253.65625 101.757812 C 253.65625 102.734375 253.246094 104.296875 252.699219 105.214844 C 252.464844 105.585938 252.191406 105.761719 251.898438 105.761719 C 251.566406 105.761719 251.351562 105.527344 251.351562 105.039062 C 251.351562 103.886719 251.78125 102.167969 252.464844 101.40625 C 252.679688 101.171875 252.894531 101.074219 253.128906 101.074219 C 253.460938 101.074219 253.65625 101.328125 253.65625 101.757812 Z M 253.65625 101.757812 "/>
<path style=" stroke:none;fill-rule:nonzero;fill:rgb(0%,0%,0%);fill-opacity:1;" d="M 259.183594 105.019531 C 258.5 105.15625 258.460938 105.136719 257.699219 105.3125 L 257.503906 105.351562 L 257.503906 105.488281 C 257.660156 105.46875 257.855469 105.46875 258.011719 105.46875 L 258.03125 105.46875 C 258.226562 105.46875 258.34375 105.566406 258.34375 105.742188 C 258.34375 105.800781 258.324219 105.898438 258.285156 106.054688 L 257.09375 110.332031 C 256.996094 110.664062 256.800781 110.761719 256.097656 110.800781 L 256.097656 110.9375 L 258.539062 110.9375 L 258.539062 110.800781 L 258.363281 110.800781 C 257.972656 110.800781 257.777344 110.722656 257.777344 110.527344 C 257.777344 110.429688 257.875 110.097656 257.933594 109.882812 L 259.203125 105.332031 C 259.222656 105.214844 259.242188 105.136719 259.242188 105.078125 C 259.242188 105.039062 259.222656 105.019531 259.203125 105.019531 Z M 259.183594 105.019531 "/>
<path style="fill-rule:nonzero;fill:rgb(100%,100%,100%);fill-opacity:1;stroke-width:1;stroke-linecap:round;stroke-linejoin:round;stroke:rgb(0%,0%,0%);stroke-opacity:1;stroke-miterlimit:10;" d="M 199.984375 210.5 L 222.484375 210.5 L 222.484375 233 L 199.984375 233 Z M 199.984375 210.5 " transform="matrix(1.25,0,0,1.25,-8.75,-217.5)"/>
<path style=" stroke:none;fill-rule:nonzero;fill:rgb(0%,0%,0%);fill-opacity:1;" d="M 253.4375 55.742188 C 252.675781 55.742188 251.953125 56.035156 251.386719 56.601562 C 250.703125 57.265625 250.253906 58.300781 250.253906 59.414062 C 250.253906 60.527344 251.054688 61.074219 252.109375 61.074219 C 252.851562 61.074219 253.515625 60.800781 254.082031 60.234375 C 254.765625 59.550781 255.253906 58.496094 255.253906 57.441406 C 255.253906 56.40625 254.570312 55.742188 253.496094 55.742188 Z M 253.90625 56.757812 C 253.90625 57.734375 253.496094 59.296875 252.949219 60.214844 C 252.714844 60.585938 252.441406 60.761719 252.148438 60.761719 C 251.816406 60.761719 251.601562 60.527344 251.601562 60.039062 C 251.601562 58.886719 252.03125 57.167969 252.714844 56.40625 C 252.929688 56.171875 253.144531 56.074219 253.378906 56.074219 C 253.710938 56.074219 253.90625 56.328125 253.90625 56.757812 Z M 253.90625 56.757812 "/>
<path style=" stroke:none;fill-rule:nonzero;fill:rgb(0%,0%,0%);fill-opacity:1;" d="M 256.796875 61.503906 C 257.109375 60.917969 257.558594 60.664062 258.085938 60.664062 C 258.769531 60.664062 259.121094 61.113281 259.121094 61.71875 C 259.121094 61.914062 259.101562 62.070312 259.042969 62.1875 C 258.828125 62.65625 258.4375 63.222656 257.851562 63.828125 L 256.015625 65.78125 L 256.015625 65.9375 L 259.121094 65.9375 L 259.550781 64.765625 L 259.414062 64.707031 C 259.199219 65.136719 259.023438 65.273438 258.515625 65.273438 L 256.933594 65.273438 L 256.933594 65.234375 L 258.574219 63.554688 C 259.609375 62.480469 259.863281 62.089844 259.863281 61.503906 C 259.863281 60.664062 259.296875 60.019531 258.457031 60.019531 C 258.046875 60.019531 257.675781 60.136719 257.34375 60.390625 C 257.03125 60.625 256.835938 60.917969 256.621094 61.445312 Z M 256.796875 61.503906 "/>
<path style="fill-rule:nonzero;fill:rgb(100%,100%,100%);fill-opacity:1;stroke-width:1;stroke-linecap:round;stroke-linejoin:round;stroke:rgb(0%,0%,0%);stroke-opacity:1;stroke-miterlimit:10;" d="M 199.88125 174.5 L 222.38125 174.5 L 222.38125 197 L 199.88125 197 Z M 199.88125 174.5 " transform="matrix(1.25,0,0,1.25,-8.75,-217.5)"/>
<path style=" stroke:none;fill-rule:nonzero;fill:rgb(0%,0%,0%);fill-opacity:1;" d="M 253.3125 10.742188 C 252.550781 10.742188 251.828125 11.035156 251.261719 11.601562 C 250.578125 12.265625 250.128906 13.300781 250.128906 14.414062 C 250.128906 15.527344 250.929688 16.074219 251.984375 16.074219 C 252.726562 16.074219 253.390625 15.800781 253.957031 15.234375 C 254.640625 14.550781 255.128906 13.496094 255.128906 12.441406 C 255.128906 11.40625 254.445312 10.742188 253.371094 10.742188 Z M 253.78125 11.757812 C 253.78125 12.734375 253.371094 14.296875 252.824219 15.214844 C 252.589844 15.585938 252.316406 15.761719 252.023438 15.761719 C 251.691406 15.761719 251.476562 15.527344 251.476562 15.039062 C 251.476562 13.886719 251.90625 12.167969 252.589844 11.40625 C 252.804688 11.171875 253.019531 11.074219 253.253906 11.074219 C 253.585938 11.074219 253.78125 11.328125 253.78125 11.757812 Z M 253.78125 11.757812 "/>
<path style=" stroke:none;fill-rule:nonzero;fill:rgb(0%,0%,0%);fill-opacity:1;" d="M 257.355469 15.976562 C 257.667969 15.566406 257.960938 15.390625 258.332031 15.390625 C 258.800781 15.390625 259.09375 15.703125 259.09375 16.191406 C 259.09375 16.5625 258.917969 16.855469 258.566406 17.109375 C 258.175781 17.382812 257.804688 17.5 257.023438 17.636719 L 257.023438 17.773438 L 257.238281 17.773438 C 258.078125 17.773438 258.644531 18.222656 258.644531 19.160156 C 258.644531 19.570312 258.527344 20 258.3125 20.273438 C 258.078125 20.507812 257.785156 20.664062 257.492188 20.664062 C 257.316406 20.664062 257.101562 20.585938 256.867188 20.390625 C 256.632812 20.175781 256.476562 20.117188 256.300781 20.117188 C 256.085938 20.117188 255.929688 20.273438 255.929688 20.507812 C 255.929688 20.78125 256.28125 20.996094 256.90625 20.996094 C 257.53125 20.996094 258.097656 20.839844 258.527344 20.449219 C 259.015625 20.019531 259.328125 19.414062 259.328125 18.710938 C 259.328125 18.085938 259.09375 17.675781 258.507812 17.460938 L 258.507812 17.421875 C 259.503906 17.070312 259.855469 16.738281 259.855469 16.09375 C 259.855469 15.46875 259.386719 15.019531 258.703125 15.019531 C 258.058594 15.019531 257.492188 15.292969 257.21875 15.9375 Z M 257.355469 15.976562 "/>
<path style="fill-rule:nonzero;fill:rgb(100%,100%,100%);fill-opacity:1;stroke-width:1;stroke-linecap:round;stroke-linejoin:round;stroke:rgb(0%,0%,0%);stroke-opacity:1;stroke-miterlimit:10;" d="M 286.0375 246.5 L 308.5375 246.5 L 308.5375 269 L 286.0375 269 Z M 286.0375 246.5 " transform="matrix(1.25,0,0,1.25,-8.75,-217.5)"/>
<path style=" stroke:none;fill-rule:nonzero;fill:rgb(0%,0%,0%);fill-opacity:1;" d="M 360.910156 103.222656 C 360.714844 102.226562 360.128906 100.351562 359.953125 100.351562 L 359.914062 100.351562 C 359.308594 100.449219 358.9375 100.507812 358.703125 100.546875 C 358.585938 100.585938 358.46875 100.605469 358.351562 100.625 L 358.351562 100.820312 C 358.46875 100.78125 358.566406 100.761719 358.683594 100.761719 C 359.152344 100.761719 359.347656 100.9375 359.5625 101.484375 C 359.855469 102.246094 360.480469 104.765625 360.480469 105.214844 C 360.480469 105.351562 360.441406 105.488281 360.363281 105.625 C 360.285156 105.761719 359.777344 106.425781 359.5625 106.640625 C 359.308594 106.914062 359.171875 107.011719 359.035156 107.011719 C 358.742188 107.011719 358.742188 106.699219 358.351562 106.699219 C 358.097656 106.699219 357.902344 106.894531 357.902344 107.148438 C 357.902344 107.441406 358.136719 107.636719 358.488281 107.636719 C 359.113281 107.636719 360.324219 106.328125 361.496094 104.394531 C 362.433594 102.851562 362.960938 101.601562 362.960938 100.976562 C 362.960938 100.625 362.726562 100.351562 362.375 100.351562 C 362.121094 100.351562 361.925781 100.527344 361.925781 100.761719 C 361.925781 100.957031 362.003906 101.054688 362.21875 101.210938 C 362.433594 101.347656 362.511719 101.40625 362.511719 101.5625 C 362.511719 102.070312 362.101562 102.871094 361.144531 104.453125 Z M 360.910156 103.222656 "/>
<path style=" stroke:none;fill-rule:nonzero;fill:rgb(0%,0%,0%);fill-opacity:1;" d="M 366.6875 105.644531 C 366.003906 105.78125 365.964844 105.761719 365.203125 105.9375 L 365.007812 105.976562 L 365.007812 106.113281 C 365.164062 106.09375 365.359375 106.09375 365.515625 106.09375 L 365.535156 106.09375 C 365.730469 106.09375 365.847656 106.191406 365.847656 106.367188 C 365.847656 106.425781 365.828125 106.523438 365.789062 106.679688 L 364.597656 110.957031 C 364.5 111.289062 364.304688 111.386719 363.601562 111.425781 L 363.601562 111.5625 L 366.042969 111.5625 L 366.042969 111.425781 L 365.867188 111.425781 C 365.476562 111.425781 365.28125 111.347656 365.28125 111.152344 C 365.28125 111.054688 365.378906 110.722656 365.4375 110.507812 L 366.707031 105.957031 C 366.726562 105.839844 366.746094 105.761719 366.746094 105.703125 C 366.746094 105.664062 366.726562 105.644531 366.707031 105.644531 Z M 366.6875 105.644531 "/>
<path style="fill-rule:nonzero;fill:rgb(100%,100%,100%);fill-opacity:1;stroke-width:1;stroke-linecap:round;stroke-linejoin:round;stroke:rgb(0%,0%,0%);stroke-opacity:1;stroke-miterlimit:10;" d="M 286.0375 210.5 L 308.5375 210.5 L 308.5375 233 L 286.0375 233 Z M 286.0375 210.5 " transform="matrix(1.25,0,0,1.25,-8.75,-217.5)"/>
<path style=" stroke:none;fill-rule:nonzero;fill:rgb(0%,0%,0%);fill-opacity:1;" d="M 360.910156 58.222656 C 360.714844 57.226562 360.128906 55.351562 359.953125 55.351562 L 359.914062 55.351562 C 359.308594 55.449219 358.9375 55.507812 358.703125 55.546875 C 358.585938 55.585938 358.46875 55.605469 358.351562 55.625 L 358.351562 55.820312 C 358.46875 55.78125 358.566406 55.761719 358.683594 55.761719 C 359.152344 55.761719 359.347656 55.9375 359.5625 56.484375 C 359.855469 57.246094 360.480469 59.765625 360.480469 60.214844 C 360.480469 60.351562 360.441406 60.488281 360.363281 60.625 C 360.285156 60.761719 359.777344 61.425781 359.5625 61.640625 C 359.308594 61.914062 359.171875 62.011719 359.035156 62.011719 C 358.742188 62.011719 358.742188 61.699219 358.351562 61.699219 C 358.097656 61.699219 357.902344 61.894531 357.902344 62.148438 C 357.902344 62.441406 358.136719 62.636719 358.488281 62.636719 C 359.113281 62.636719 360.324219 61.328125 361.496094 59.394531 C 362.433594 57.851562 362.960938 56.601562 362.960938 55.976562 C 362.960938 55.625 362.726562 55.351562 362.375 55.351562 C 362.121094 55.351562 361.925781 55.527344 361.925781 55.761719 C 361.925781 55.957031 362.003906 56.054688 362.21875 56.210938 C 362.433594 56.347656 362.511719 56.40625 362.511719 56.5625 C 362.511719 57.070312 362.101562 57.871094 361.144531 59.453125 Z M 360.910156 58.222656 "/>
<path style=" stroke:none;fill-rule:nonzero;fill:rgb(0%,0%,0%);fill-opacity:1;" d="M 364.050781 62.128906 C 364.363281 61.542969 364.8125 61.289062 365.339844 61.289062 C 366.023438 61.289062 366.375 61.738281 366.375 62.34375 C 366.375 62.539062 366.355469 62.695312 366.296875 62.8125 C 366.082031 63.28125 365.691406 63.847656 365.105469 64.453125 L 363.269531 66.40625 L 363.269531 66.5625 L 366.375 66.5625 L 366.804688 65.390625 L 366.667969 65.332031 C 366.453125 65.761719 366.277344 65.898438 365.769531 65.898438 L 364.1875 65.898438 L 364.1875 65.859375 L 365.828125 64.179688 C 366.863281 63.105469 367.117188 62.714844 367.117188 62.128906 C 367.117188 61.289062 366.550781 60.644531 365.710938 60.644531 C 365.300781 60.644531 364.929688 60.761719 364.597656 61.015625 C 364.285156 61.25 364.089844 61.542969 363.875 62.070312 Z M 364.050781 62.128906 "/>
<path style="fill-rule:nonzero;fill:rgb(100%,100%,100%);fill-opacity:1;stroke-width:1;stroke-linecap:round;stroke-linejoin:round;stroke:rgb(0%,0%,0%);stroke-opacity:1;stroke-miterlimit:10;" d="M 285.7375 174.5 L 308.2375 174.5 L 308.2375 197 L 285.7375 197 Z M 285.7375 174.5 " transform="matrix(1.25,0,0,1.25,-8.75,-217.5)"/>
<path style=" stroke:none;fill-rule:nonzero;fill:rgb(0%,0%,0%);fill-opacity:1;" d="M 360.535156 13.222656 C 360.339844 12.226562 359.753906 10.351562 359.578125 10.351562 L 359.539062 10.351562 C 358.933594 10.449219 358.5625 10.507812 358.328125 10.546875 C 358.210938 10.585938 358.09375 10.605469 357.976562 10.625 L 357.976562 10.820312 C 358.09375 10.78125 358.191406 10.761719 358.308594 10.761719 C 358.777344 10.761719 358.972656 10.9375 359.1875 11.484375 C 359.480469 12.246094 360.105469 14.765625 360.105469 15.214844 C 360.105469 15.351562 360.066406 15.488281 359.988281 15.625 C 359.910156 15.761719 359.402344 16.425781 359.1875 16.640625 C 358.933594 16.914062 358.796875 17.011719 358.660156 17.011719 C 358.367188 17.011719 358.367188 16.699219 357.976562 16.699219 C 357.722656 16.699219 357.527344 16.894531 357.527344 17.148438 C 357.527344 17.441406 357.761719 17.636719 358.113281 17.636719 C 358.738281 17.636719 359.949219 16.328125 361.121094 14.394531 C 362.058594 12.851562 362.585938 11.601562 362.585938 10.976562 C 362.585938 10.625 362.351562 10.351562 362 10.351562 C 361.746094 10.351562 361.550781 10.527344 361.550781 10.761719 C 361.550781 10.957031 361.628906 11.054688 361.84375 11.210938 C 362.058594 11.347656 362.136719 11.40625 362.136719 11.5625 C 362.136719 12.070312 361.726562 12.871094 360.769531 14.453125 Z M 360.535156 13.222656 "/>
<path style=" stroke:none;fill-rule:nonzero;fill:rgb(0%,0%,0%);fill-opacity:1;" d="M 364.359375 16.601562 C 364.671875 16.191406 364.964844 16.015625 365.335938 16.015625 C 365.804688 16.015625 366.097656 16.328125 366.097656 16.816406 C 366.097656 17.1875 365.921875 17.480469 365.570312 17.734375 C 365.179688 18.007812 364.808594 18.125 364.027344 18.261719 L 364.027344 18.398438 L 364.242188 18.398438 C 365.082031 18.398438 365.648438 18.847656 365.648438 19.785156 C 365.648438 20.195312 365.53125 20.625 365.316406 20.898438 C 365.082031 21.132812 364.789062 21.289062 364.496094 21.289062 C 364.320312 21.289062 364.105469 21.210938 363.871094 21.015625 C 363.636719 20.800781 363.480469 20.742188 363.304688 20.742188 C 363.089844 20.742188 362.933594 20.898438 362.933594 21.132812 C 362.933594 21.40625 363.285156 21.621094 363.910156 21.621094 C 364.535156 21.621094 365.101562 21.464844 365.53125 21.074219 C 366.019531 20.644531 366.332031 20.039062 366.332031 19.335938 C 366.332031 18.710938 366.097656 18.300781 365.511719 18.085938 L 365.511719 18.046875 C 366.507812 17.695312 366.859375 17.363281 366.859375 16.71875 C 366.859375 16.09375 366.390625 15.644531 365.707031 15.644531 C 365.0625 15.644531 364.496094 15.917969 364.222656 16.5625 Z M 364.359375 16.601562 "/>
<path style="fill-rule:nonzero;fill:rgb(100%,100%,100%);fill-opacity:1;stroke-width:1;stroke-linecap:round;stroke-linejoin:round;stroke:rgb(0%,0%,0%);stroke-opacity:1;stroke-miterlimit:10;" d="M 105.925 282.5 L 128.425 282.5 L 128.425 305 L 105.925 305 Z M 105.925 282.5 " transform="matrix(1.25,0,0,1.25,-8.75,-217.5)"/>
<path style=" stroke:none;fill-rule:nonzero;fill:rgb(0%,0%,0%);fill-opacity:1;" d="M 137.757812 149.335938 C 137.269531 150.039062 137.054688 150.273438 136.917969 150.273438 C 136.820312 150.273438 136.722656 150.175781 136.722656 150.097656 C 136.722656 150.058594 136.722656 150.039062 136.761719 149.960938 L 137.425781 147.910156 C 137.640625 147.207031 137.757812 146.796875 137.757812 146.582031 C 137.757812 146.054688 137.445312 145.742188 136.898438 145.742188 C 136.136719 145.742188 135.609375 146.171875 134.496094 147.753906 L 135.707031 143.066406 C 134.847656 143.242188 134.28125 143.339844 133.363281 143.417969 L 133.363281 143.710938 L 133.617188 143.710938 C 133.929688 143.710938 134.085938 143.828125 134.085938 144.082031 C 134.085938 144.179688 134.046875 144.375 133.96875 144.609375 L 132.269531 150.9375 L 133.617188 150.9375 C 134.203125 148.964844 134.417969 148.417969 134.964844 147.617188 C 135.453125 146.894531 135.84375 146.542969 136.15625 146.542969 C 136.292969 146.542969 136.371094 146.601562 136.371094 146.777344 C 136.371094 146.855469 136.351562 146.953125 136.292969 147.128906 L 136.078125 147.792969 C 135.511719 149.453125 135.394531 149.863281 135.394531 150.3125 C 135.394531 150.761719 135.6875 151.035156 136.136719 151.035156 C 136.820312 151.035156 137.269531 150.664062 138.011719 149.511719 Z M 137.757812 149.335938 "/>
<path style=" stroke:none;fill-rule:nonzero;fill:rgb(0%,0%,0%);fill-opacity:1;" d="M 143.015625 152.226562 C 143.015625 150.800781 142.507812 150.019531 141.609375 150.019531 C 140.242188 150.019531 138.933594 151.992188 138.933594 154.042969 C 138.933594 155.273438 139.421875 155.996094 140.320312 155.996094 C 140.691406 155.996094 141.0625 155.878906 141.433594 155.625 C 142.332031 154.980469 143.015625 153.496094 143.015625 152.226562 Z M 142.3125 151.40625 C 142.3125 152.539062 141.980469 153.984375 141.472656 154.882812 C 141.140625 155.449219 140.75 155.761719 140.339844 155.761719 C 139.929688 155.761719 139.636719 155.3125 139.636719 154.570312 C 139.636719 153.632812 140.085938 151.914062 140.535156 151.09375 C 140.847656 150.527344 141.179688 150.273438 141.589844 150.273438 C 142.117188 150.273438 142.3125 150.703125 142.3125 151.40625 Z M 142.3125 151.40625 "/>
<path style="fill-rule:nonzero;fill:rgb(40%,74.901961%,100%);fill-opacity:1;stroke-width:1;stroke-linecap:round;stroke-linejoin:round;stroke:rgb(0%,0%,0%);stroke-opacity:1;stroke-miterlimit:10;" d="M 154.20625 282.5 L 182.203125 282.5 L 182.203125 305 L 154.20625 305 Z M 154.20625 282.5 " transform="matrix(1.25,0,0,1.25,-8.75,-217.5)"/>
<path style=" stroke:none;fill-rule:nonzero;fill:rgb(0%,0%,0%);fill-opacity:1;" d="M 202.699219 143.417969 L 200.609375 143.417969 L 200.609375 143.691406 C 201.234375 143.730469 201.3125 143.789062 201.3125 144.199219 C 201.3125 144.335938 201.273438 144.414062 201.136719 144.707031 L 199.398438 148.398438 L 199.027344 145.117188 C 198.988281 144.6875 198.949219 144.433594 198.949219 144.296875 C 198.949219 143.867188 199.046875 143.75 199.652344 143.691406 L 199.652344 143.417969 L 196.644531 143.417969 L 196.644531 143.671875 C 197.328125 143.769531 197.425781 143.964844 197.425781 144.863281 L 195.746094 148.398438 L 195.296875 144.472656 C 195.296875 144.414062 195.296875 144.316406 195.296875 144.257812 C 195.296875 143.90625 195.453125 143.769531 195.980469 143.691406 L 195.980469 143.417969 L 192.855469 143.417969 L 192.855469 143.671875 C 193.578125 143.808594 193.617188 143.90625 193.734375 144.707031 L 194.613281 151.132812 L 194.925781 151.132812 L 197.5625 145.644531 L 198.226562 151.132812 L 198.539062 151.132812 L 201.722656 144.609375 C 202.09375 143.847656 202.230469 143.75 202.699219 143.671875 Z M 202.699219 143.417969 "/>
<path style=" stroke:none;fill-rule:nonzero;fill:rgb(0%,0%,0%);fill-opacity:1;" d="M 206.234375 153.300781 C 206.234375 152.539062 205.707031 152.070312 204.984375 152.070312 C 204.632812 152.070312 204.28125 152.148438 203.949219 152.34375 C 203.03125 152.832031 202.367188 153.828125 202.367188 154.824219 C 202.367188 155.585938 202.835938 156.035156 203.65625 156.035156 C 204.242188 156.035156 204.789062 155.820312 205.296875 155.3125 C 205.882812 154.746094 206.234375 153.964844 206.234375 153.300781 Z M 205.492188 153.085938 C 205.492188 153.75 205.238281 154.570312 204.847656 155.117188 C 204.496094 155.605469 204.164062 155.859375 203.792969 155.859375 C 203.382812 155.859375 203.109375 155.585938 203.109375 155.058594 C 203.109375 154.355469 203.34375 153.671875 203.753906 153.066406 C 204.105469 152.539062 204.496094 152.265625 204.867188 152.265625 C 205.238281 152.265625 205.492188 152.558594 205.492188 153.085938 Z M 205.492188 153.085938 "/>
<path style=" stroke:none;fill-rule:nonzero;fill:rgb(0%,0%,0%);fill-opacity:1;" d="M 210.570312 154.902344 C 210.101562 155.507812 210.003906 155.605469 209.867188 155.605469 C 209.789062 155.605469 209.710938 155.527344 209.710938 155.449219 C 209.710938 155.351562 209.867188 154.804688 210.003906 154.355469 C 210.277344 153.535156 210.433594 152.890625 210.433594 152.65625 C 210.433594 152.34375 210.257812 152.070312 209.867188 152.070312 C 209.320312 152.070312 208.636719 152.65625 207.855469 153.925781 L 208.910156 150.019531 L 208.851562 149.960938 C 208.34375 150.078125 207.992188 150.136719 207.464844 150.195312 L 207.464844 150.332031 L 207.699219 150.332031 C 207.855469 150.332031 208.070312 150.390625 208.070312 150.546875 C 208.070312 150.664062 208.03125 150.820312 207.953125 151.09375 L 206.683594 155.9375 L 207.328125 155.9375 C 207.679688 154.589844 207.816406 154.277344 208.167969 153.75 C 208.617188 153.066406 209.183594 152.519531 209.496094 152.519531 C 209.710938 152.519531 209.75 152.617188 209.75 152.734375 C 209.75 152.773438 209.710938 152.890625 209.691406 153.027344 L 209.203125 154.84375 C 209.085938 155.273438 209.027344 155.546875 209.027344 155.644531 C 209.027344 155.878906 209.183594 156.015625 209.417969 156.015625 C 209.867188 156.015625 210.160156 155.78125 210.6875 155.019531 Z M 210.570312 154.902344 "/>
<path style="fill-rule:nonzero;fill:rgb(40%,74.901961%,100%);fill-opacity:1;stroke-width:1;stroke-linecap:round;stroke-linejoin:round;stroke:rgb(0%,0%,0%);stroke-opacity:1;stroke-miterlimit:10;" d="M 47.25 282.5 L 93.25 282.5 L 93.25 305 L 47.25 305 Z M 47.25 282.5 " transform="matrix(1.25,0,0,1.25,-8.75,-217.5)"/>
<path style=" stroke:none;fill-rule:nonzero;fill:rgb(0%,0%,0%);fill-opacity:1;" d="M 67.214844 143.417969 L 65.125 143.417969 L 65.125 143.691406 C 65.75 143.730469 65.828125 143.789062 65.828125 144.199219 C 65.828125 144.335938 65.789062 144.414062 65.652344 144.707031 L 63.914062 148.398438 L 63.542969 145.117188 C 63.503906 144.6875 63.464844 144.433594 63.464844 144.296875 C 63.464844 143.867188 63.5625 143.75 64.167969 143.691406 L 64.167969 143.417969 L 61.160156 143.417969 L 61.160156 143.671875 C 61.84375 143.769531 61.941406 143.964844 61.941406 144.863281 L 60.261719 148.398438 L 59.8125 144.472656 C 59.8125 144.414062 59.8125 144.316406 59.8125 144.257812 C 59.8125 143.90625 59.96875 143.769531 60.496094 143.691406 L 60.496094 143.417969 L 57.371094 143.417969 L 57.371094 143.671875 C 58.09375 143.808594 58.132812 143.90625 58.25 144.707031 L 59.128906 151.132812 L 59.441406 151.132812 L 62.078125 145.644531 L 62.742188 151.132812 L 63.054688 151.132812 L 66.238281 144.609375 C 66.609375 143.847656 66.746094 143.75 67.214844 143.671875 Z M 67.214844 143.417969 "/>
<path style=" stroke:none;fill-rule:nonzero;fill:rgb(0%,0%,0%);fill-opacity:1;" d="M 70.714844 154.902344 C 70.246094 155.507812 70.148438 155.605469 70.011719 155.605469 C 69.933594 155.605469 69.855469 155.527344 69.855469 155.449219 C 69.855469 155.351562 70.011719 154.804688 70.148438 154.355469 C 70.421875 153.535156 70.578125 152.890625 70.578125 152.65625 C 70.578125 152.34375 70.402344 152.070312 70.011719 152.070312 C 69.464844 152.070312 68.78125 152.65625 68 153.925781 L 69.054688 150.019531 L 68.996094 149.960938 C 68.488281 150.078125 68.136719 150.136719 67.609375 150.195312 L 67.609375 150.332031 L 67.84375 150.332031 C 68 150.332031 68.214844 150.390625 68.214844 150.546875 C 68.214844 150.664062 68.175781 150.820312 68.097656 151.09375 L 66.828125 155.9375 L 67.472656 155.9375 C 67.824219 154.589844 67.960938 154.277344 68.3125 153.75 C 68.761719 153.066406 69.328125 152.519531 69.640625 152.519531 C 69.855469 152.519531 69.894531 152.617188 69.894531 152.734375 C 69.894531 152.773438 69.855469 152.890625 69.835938 153.027344 L 69.347656 154.84375 C 69.230469 155.273438 69.171875 155.546875 69.171875 155.644531 C 69.171875 155.878906 69.328125 156.015625 69.5625 156.015625 C 70.011719 156.015625 70.304688 155.78125 70.832031 155.019531 Z M 70.714844 154.902344 "/>
<path style=" stroke:none;fill-rule:nonzero;fill:rgb(0%,0%,0%);fill-opacity:1;" d="M 73.15625 152.832031 C 73.039062 152.226562 72.921875 152.070312 72.707031 152.070312 C 72.511719 152.070312 72.21875 152.148438 71.691406 152.324219 L 71.59375 152.363281 L 71.613281 152.5 L 71.769531 152.460938 C 71.945312 152.421875 72.042969 152.402344 72.121094 152.402344 C 72.335938 152.402344 72.394531 152.480469 72.511719 152.988281 L 72.765625 154.082031 L 72.042969 155.097656 C 71.867188 155.351562 71.691406 155.527344 71.59375 155.527344 C 71.535156 155.527344 71.457031 155.507812 71.359375 155.449219 C 71.261719 155.390625 71.164062 155.351562 71.085938 155.351562 C 70.910156 155.351562 70.792969 155.488281 70.792969 155.664062 C 70.792969 155.898438 70.949219 156.035156 71.222656 156.035156 C 71.496094 156.035156 71.671875 155.957031 72.0625 155.429688 L 72.824219 154.394531 L 73.078125 155.429688 C 73.195312 155.878906 73.3125 156.035156 73.605469 156.035156 C 73.9375 156.035156 74.152344 155.820312 74.660156 155.039062 L 74.542969 154.960938 C 74.464844 155.039062 74.425781 155.097656 74.347656 155.195312 C 74.152344 155.46875 74.054688 155.546875 73.9375 155.546875 C 73.820312 155.546875 73.742188 155.429688 73.683594 155.195312 L 73.390625 154.023438 C 73.351562 153.808594 73.332031 153.691406 73.332031 153.632812 C 73.722656 152.949219 74.035156 152.578125 74.191406 152.578125 C 74.386719 152.578125 74.484375 152.714844 74.640625 152.714844 C 74.816406 152.714844 74.933594 152.578125 74.933594 152.402344 C 74.933594 152.207031 74.796875 152.070312 74.582031 152.070312 C 74.191406 152.070312 73.878906 152.402344 73.253906 153.320312 Z M 73.15625 152.832031 "/>
<path style=" stroke:none;fill-rule:nonzero;fill:rgb(0%,0%,0%);fill-opacity:1;" d="M 76.570312 152.988281 C 77.898438 152.421875 78.71875 151.484375 78.71875 150.488281 C 78.71875 149.882812 78.386719 149.433594 77.78125 149.433594 C 77.332031 149.433594 76.960938 149.707031 76.960938 150.253906 C 76.960938 150.546875 77.058594 150.78125 77.410156 150.976562 C 77.683594 151.132812 77.742188 151.25 77.742188 151.40625 C 77.742188 151.796875 77.3125 152.226562 76.414062 152.695312 Z M 76.570312 152.988281 "/>
<path style=" stroke:none;fill-rule:nonzero;fill:rgb(0%,0%,0%);fill-opacity:1;" d="M 93.289062 143.417969 L 91.199219 143.417969 L 91.199219 143.691406 C 91.824219 143.730469 91.902344 143.789062 91.902344 144.199219 C 91.902344 144.335938 91.863281 144.414062 91.726562 144.707031 L 89.988281 148.398438 L 89.617188 145.117188 C 89.578125 144.6875 89.539062 144.433594 89.539062 144.296875 C 89.539062 143.867188 89.636719 143.75 90.242188 143.691406 L 90.242188 143.417969 L 87.234375 143.417969 L 87.234375 143.671875 C 87.917969 143.769531 88.015625 143.964844 88.015625 144.863281 L 86.335938 148.398438 L 85.886719 144.472656 C 85.886719 144.414062 85.886719 144.316406 85.886719 144.257812 C 85.886719 143.90625 86.042969 143.769531 86.570312 143.691406 L 86.570312 143.417969 L 83.445312 143.417969 L 83.445312 143.671875 C 84.167969 143.808594 84.207031 143.90625 84.324219 144.707031 L 85.203125 151.132812 L 85.515625 151.132812 L 88.152344 145.644531 L 88.816406 151.132812 L 89.128906 151.132812 L 92.3125 144.609375 C 92.683594 143.847656 92.820312 143.75 93.289062 143.671875 Z M 93.289062 143.417969 "/>
<path style=" stroke:none;fill-rule:nonzero;fill:rgb(0%,0%,0%);fill-opacity:1;" d="M 96.789062 154.902344 C 96.320312 155.507812 96.222656 155.605469 96.085938 155.605469 C 96.007812 155.605469 95.929688 155.527344 95.929688 155.449219 C 95.929688 155.351562 96.085938 154.804688 96.222656 154.355469 C 96.496094 153.535156 96.652344 152.890625 96.652344 152.65625 C 96.652344 152.34375 96.476562 152.070312 96.085938 152.070312 C 95.539062 152.070312 94.855469 152.65625 94.074219 153.925781 L 95.128906 150.019531 L 95.070312 149.960938 C 94.5625 150.078125 94.210938 150.136719 93.683594 150.195312 L 93.683594 150.332031 L 93.917969 150.332031 C 94.074219 150.332031 94.289062 150.390625 94.289062 150.546875 C 94.289062 150.664062 94.25 150.820312 94.171875 151.09375 L 92.902344 155.9375 L 93.546875 155.9375 C 93.898438 154.589844 94.035156 154.277344 94.386719 153.75 C 94.835938 153.066406 95.402344 152.519531 95.714844 152.519531 C 95.929688 152.519531 95.96875 152.617188 95.96875 152.734375 C 95.96875 152.773438 95.929688 152.890625 95.910156 153.027344 L 95.421875 154.84375 C 95.304688 155.273438 95.246094 155.546875 95.246094 155.644531 C 95.246094 155.878906 95.402344 156.015625 95.636719 156.015625 C 96.085938 156.015625 96.378906 155.78125 96.90625 155.019531 Z M 96.789062 154.902344 "/>
<path style=" stroke:none;fill-rule:nonzero;fill:rgb(0%,0%,0%);fill-opacity:1;" d="M 101.164062 154.902344 C 100.695312 155.507812 100.597656 155.605469 100.460938 155.605469 C 100.382812 155.605469 100.304688 155.527344 100.304688 155.449219 C 100.304688 155.351562 100.460938 154.804688 100.597656 154.355469 C 100.871094 153.535156 101.027344 152.890625 101.027344 152.65625 C 101.027344 152.34375 100.851562 152.070312 100.460938 152.070312 C 99.914062 152.070312 99.230469 152.65625 98.449219 153.925781 L 99.503906 150.019531 L 99.445312 149.960938 C 98.9375 150.078125 98.585938 150.136719 98.058594 150.195312 L 98.058594 150.332031 L 98.292969 150.332031 C 98.449219 150.332031 98.664062 150.390625 98.664062 150.546875 C 98.664062 150.664062 98.625 150.820312 98.546875 151.09375 L 97.277344 155.9375 L 97.921875 155.9375 C 98.273438 154.589844 98.410156 154.277344 98.761719 153.75 C 99.210938 153.066406 99.777344 152.519531 100.089844 152.519531 C 100.304688 152.519531 100.34375 152.617188 100.34375 152.734375 C 100.34375 152.773438 100.304688 152.890625 100.285156 153.027344 L 99.796875 154.84375 C 99.679688 155.273438 99.621094 155.546875 99.621094 155.644531 C 99.621094 155.878906 99.777344 156.015625 100.011719 156.015625 C 100.460938 156.015625 100.753906 155.78125 101.28125 155.019531 Z M 101.164062 154.902344 "/>
<path style="fill:none;stroke-width:1;stroke-linecap:round;stroke-linejoin:round;stroke:rgb(0%,0%,0%);stroke-opacity:1;stroke-miterlimit:10;" d="M 30.575 257.75 L 34.74375 257.75 M 52.859375 257.75 L 53.1 257.75 " transform="matrix(1.25,0,0,1.25,-8.75,-217.5)"/>
<path style="fill:none;stroke-width:1;stroke-linecap:butt;stroke-linejoin:miter;stroke:rgb(0%,0%,0%);stroke-opacity:1;stroke-miterlimit:10;" d="M 57.1 257.75 L 53.1 257.75 M 53.1 256.25 L 57.1 257.75 L 53.1 259.25 " transform="matrix(1.25,0,0,1.25,-8.75,-217.5)"/>
<path style="fill:none;stroke-width:1;stroke-linecap:round;stroke-linejoin:round;stroke:rgb(0%,0%,0%);stroke-opacity:1;stroke-miterlimit:10;" d="M 30.671875 221.75 L 39.246875 221.75 M 50.246875 221.75 L 53.2 221.75 " transform="matrix(1.25,0,0,1.25,-8.75,-217.5)"/>
<path style="fill:none;stroke-width:1;stroke-linecap:butt;stroke-linejoin:miter;stroke:rgb(0%,0%,0%);stroke-opacity:1;stroke-miterlimit:10;" d="M 57.2 221.75 L 53.2 221.75 M 53.2 220.25 L 57.2 221.75 L 53.2 223.25 " transform="matrix(1.25,0,0,1.25,-8.75,-217.5)"/>
<path style="fill:none;stroke-width:1;stroke-linecap:round;stroke-linejoin:round;stroke:rgb(0%,0%,0%);stroke-opacity:1;stroke-miterlimit:10;" d="M 30.671875 185.75 L 53.2 185.75 " transform="matrix(1.25,0,0,1.25,-8.75,-217.5)"/>
<path style="fill:none;stroke-width:1;stroke-linecap:butt;stroke-linejoin:miter;stroke:rgb(0%,0%,0%);stroke-opacity:1;stroke-miterlimit:10;" d="M 57.2 185.75 L 53.2 185.75 M 53.2 184.25 L 57.2 185.75 L 53.2 187.25 " transform="matrix(1.25,0,0,1.25,-8.75,-217.5)"/>
<path style="fill:none;stroke-width:1;stroke-linecap:round;stroke-linejoin:round;stroke:rgb(0%,0%,0%);stroke-opacity:1;stroke-miterlimit:10;" d="M 128.528125 185.75 L 151.05625 185.75 " transform="matrix(1.25,0,0,1.25,-8.75,-217.5)"/>
<path style="fill:none;stroke-width:1;stroke-linecap:butt;stroke-linejoin:miter;stroke:rgb(0%,0%,0%);stroke-opacity:1;stroke-miterlimit:10;" d="M 155.05625 185.75 L 151.05625 185.75 M 151.05625 184.25 L 155.05625 185.75 L 151.05625 187.25 " transform="matrix(1.25,0,0,1.25,-8.75,-217.5)"/>
<path style="fill:none;stroke-width:1;stroke-linecap:round;stroke-linejoin:round;stroke:rgb(0%,0%,0%);stroke-opacity:1;stroke-miterlimit:10;" d="M 286.0375 248.3375 L 267.4125 232.753125 " transform="matrix(1.25,0,0,1.25,-8.75,-217.5)"/>
<path style="fill:none;stroke-width:1;stroke-linecap:butt;stroke-linejoin:miter;stroke:rgb(0%,0%,0%);stroke-opacity:1;stroke-miterlimit:10;" d="M 264.346875 230.1875 L 267.4125 232.753125 M 266.453125 233.90625 L 264.346875 230.1875 L 268.378125 231.60625 " transform="matrix(1.25,0,0,1.25,-8.75,-217.5)"/>
<path style="fill:none;stroke-width:1;stroke-linecap:round;stroke-linejoin:round;stroke:rgb(0%,0%,0%);stroke-opacity:1;stroke-miterlimit:10;" d="M 286.0375 221.75 L 271.409375 221.75 " transform="matrix(1.25,0,0,1.25,-8.75,-217.5)"/>
<path style="fill:none;stroke-width:1;stroke-linecap:butt;stroke-linejoin:miter;stroke:rgb(0%,0%,0%);stroke-opacity:1;stroke-miterlimit:10;" d="M 267.409375 221.75 L 271.409375 221.75 M 271.409375 223.25 L 267.409375 221.75 L 271.409375 220.25 " transform="matrix(1.25,0,0,1.25,-8.75,-217.5)"/>
<path style="fill:none;stroke-width:1;stroke-linecap:round;stroke-linejoin:round;stroke:rgb(0%,0%,0%);stroke-opacity:1;stroke-miterlimit:10;" d="M 285.7375 195.23125 L 267.375 210.7 " transform="matrix(1.25,0,0,1.25,-8.75,-217.5)"/>
<path style="fill:none;stroke-width:1;stroke-linecap:butt;stroke-linejoin:miter;stroke:rgb(0%,0%,0%);stroke-opacity:1;stroke-miterlimit:10;" d="M 264.315625 213.278125 L 267.375 210.7 M 268.34375 211.846875 L 264.315625 213.278125 L 266.409375 209.55 " transform="matrix(1.25,0,0,1.25,-8.75,-217.5)"/>
<path style="fill:none;stroke-width:1;stroke-linecap:round;stroke-linejoin:round;stroke:rgb(0%,0%,0%);stroke-opacity:1;stroke-miterlimit:10;" d="M 222.28125 248.38125 L 241.08125 232.725 " transform="matrix(1.25,0,0,1.25,-8.75,-217.5)"/>
<path style="fill:none;stroke-width:1;stroke-linecap:butt;stroke-linejoin:miter;stroke:rgb(0%,0%,0%);stroke-opacity:1;stroke-miterlimit:10;" d="M 244.15625 230.1625 L 241.08125 232.725 M 240.121875 231.575 L 244.15625 230.1625 L 242.04375 233.878125 " transform="matrix(1.25,0,0,1.25,-8.75,-217.5)"/>
<path style="fill:none;stroke-width:1;stroke-linecap:round;stroke-linejoin:round;stroke:rgb(0%,0%,0%);stroke-opacity:1;stroke-miterlimit:10;" d="M 222.484375 221.75 L 237.109375 221.75 " transform="matrix(1.25,0,0,1.25,-8.75,-217.5)"/>
<path style="fill:none;stroke-width:1;stroke-linecap:butt;stroke-linejoin:miter;stroke:rgb(0%,0%,0%);stroke-opacity:1;stroke-miterlimit:10;" d="M 241.109375 221.75 L 237.109375 221.75 M 237.109375 220.25 L 241.109375 221.75 L 237.109375 223.25 " transform="matrix(1.25,0,0,1.25,-8.75,-217.5)"/>
<path style="fill:none;stroke-width:1;stroke-linecap:round;stroke-linejoin:round;stroke:rgb(0%,0%,0%);stroke-opacity:1;stroke-miterlimit:10;" d="M 222.38125 195.140625 L 241.09375 210.75625 " transform="matrix(1.25,0,0,1.25,-8.75,-217.5)"/>
<path style="fill:none;stroke-width:1;stroke-linecap:butt;stroke-linejoin:miter;stroke:rgb(0%,0%,0%);stroke-opacity:1;stroke-miterlimit:10;" d="M 244.1625 213.325 L 241.09375 210.75625 M 242.05625 209.609375 L 244.1625 213.325 L 240.13125 211.909375 " transform="matrix(1.25,0,0,1.25,-8.75,-217.5)"/>
<path style="fill:none;stroke-width:1;stroke-linecap:round;stroke-linejoin:round;stroke:rgb(0%,0%,0%);stroke-opacity:1;stroke-miterlimit:10;" d="M 105.925 285.121875 L 83.859375 268.1875 " transform="matrix(1.25,0,0,1.25,-8.75,-217.5)"/>
<path style="fill:none;stroke-width:1;stroke-linecap:butt;stroke-linejoin:miter;stroke:rgb(0%,0%,0%);stroke-opacity:1;stroke-miterlimit:10;" d="M 80.684375 265.753125 L 83.859375 268.1875 M 82.94375 269.378125 L 80.684375 265.753125 L 84.76875 267 " transform="matrix(1.25,0,0,1.25,-8.75,-217.5)"/>
<path style="fill:none;stroke-width:1;stroke-linecap:round;stroke-linejoin:round;stroke:rgb(0%,0%,0%);stroke-opacity:1;stroke-miterlimit:10;" d="M 81.5 257.75 L 100.028125 257.75 " transform="matrix(1.25,0,0,1.25,-8.75,-217.5)"/>
<path style="fill:none;stroke-width:1;stroke-linecap:butt;stroke-linejoin:miter;stroke:rgb(0%,0%,0%);stroke-opacity:1;stroke-miterlimit:10;" d="M 104.028125 257.75 L 100.028125 257.75 M 100.028125 256.25 L 104.028125 257.75 L 100.028125 259.25 " transform="matrix(1.25,0,0,1.25,-8.75,-217.5)"/>
<path style="fill:none;stroke-width:1;stroke-linecap:round;stroke-linejoin:round;stroke:rgb(0%,0%,0%);stroke-opacity:1;stroke-miterlimit:10;" d="M 105.925 213.1 L 83.95 196.203125 " transform="matrix(1.25,0,0,1.25,-8.75,-217.5)"/>
<path style="fill:none;stroke-width:1;stroke-linecap:butt;stroke-linejoin:miter;stroke:rgb(0%,0%,0%);stroke-opacity:1;stroke-miterlimit:10;" d="M 80.778125 193.765625 L 83.95 196.203125 M 83.034375 197.39375 L 80.778125 193.765625 L 84.8625 195.015625 " transform="matrix(1.25,0,0,1.25,-8.75,-217.5)"/>
<path style="fill:none;stroke-width:1;stroke-linecap:round;stroke-linejoin:round;stroke:rgb(0%,0%,0%);stroke-opacity:1;stroke-miterlimit:10;" d="M 55.409375 282.5 C 47.25 274.5125 38.76875 262.38125 38.784375 246.5 C 38.8 228.29375 49.971875 210.246875 59.01875 198.6125 " transform="matrix(1.25,0,0,1.25,-8.75,-217.5)"/>
<path style="fill:none;stroke-width:1;stroke-linecap:butt;stroke-linejoin:miter;stroke:rgb(0%,0%,0%);stroke-opacity:1;stroke-miterlimit:10;" d="M 61.5375 195.50625 L 59.01875 198.6125 M 57.85625 197.66875 L 61.5375 195.50625 L 60.184375 199.559375 " transform="matrix(1.25,0,0,1.25,-8.75,-217.5)"/>
<path style="fill:none;stroke-width:1;stroke-linecap:round;stroke-linejoin:round;stroke:rgb(0%,0%,0%);stroke-opacity:1;stroke-miterlimit:10;" d="M 81.6 185.75 L 100.128125 185.75 " transform="matrix(1.25,0,0,1.25,-8.75,-217.5)"/>
<path style="fill:none;stroke-width:1;stroke-linecap:butt;stroke-linejoin:miter;stroke:rgb(0%,0%,0%);stroke-opacity:1;stroke-miterlimit:10;" d="M 104.128125 185.75 L 100.128125 185.75 M 100.128125 184.25 L 104.128125 185.75 L 100.128125 187.25 " transform="matrix(1.25,0,0,1.25,-8.75,-217.5)"/>
<path style="fill:none;stroke-width:1;stroke-linecap:round;stroke-linejoin:round;stroke:rgb(0%,0%,0%);stroke-opacity:1;stroke-miterlimit:10;" d="M 70.25 282.5 L 70.25 274.9 " transform="matrix(1.25,0,0,1.25,-8.75,-217.5)"/>
<path style="fill:none;stroke-width:1;stroke-linecap:butt;stroke-linejoin:miter;stroke:rgb(0%,0%,0%);stroke-opacity:1;stroke-miterlimit:10;" d="M 70.25 270.9 L 70.25 274.9 M 68.75 274.9 L 70.25 270.9 L 71.75 274.9 " transform="matrix(1.25,0,0,1.25,-8.75,-217.5)"/>
<path style="fill:none;stroke-width:1;stroke-linecap:round;stroke-linejoin:round;stroke:rgb(0%,0%,0%);stroke-opacity:1;stroke-miterlimit:10;" d="M 154.20625 283.41875 C 145.7 275.453125 136.4625 263.003125 136.4625 246.5 C 136.4625 228.278125 147.721875 210.2125 156.83125 198.578125 " transform="matrix(1.25,0,0,1.25,-8.75,-217.5)"/>
<path style="fill:none;stroke-width:1;stroke-linecap:butt;stroke-linejoin:miter;stroke:rgb(0%,0%,0%);stroke-opacity:1;stroke-miterlimit:10;" d="M 159.3625 195.475 L 156.83125 198.578125 M 155.671875 197.628125 L 159.3625 195.475 L 157.996875 199.525 " transform="matrix(1.25,0,0,1.25,-8.75,-217.5)"/>
<path style="fill:none;stroke-width:1;stroke-linecap:round;stroke-linejoin:round;stroke:rgb(0%,0%,0%);stroke-opacity:1;stroke-miterlimit:10;" d="M 168.175 282.5 L 168.153125 274.9 " transform="matrix(1.25,0,0,1.25,-8.75,-217.5)"/>
<path style="fill:none;stroke-width:1;stroke-linecap:butt;stroke-linejoin:miter;stroke:rgb(0%,0%,0%);stroke-opacity:1;stroke-miterlimit:10;" d="M 168.140625 270.9 L 168.153125 274.9 M 166.653125 274.903125 L 168.140625 270.9 L 169.653125 274.89375 " transform="matrix(1.25,0,0,1.25,-8.75,-217.5)"/>
<path style="fill-rule:nonzero;fill:rgb(69.803922%,85.098039%,100%);fill-opacity:1;stroke-width:1;stroke-linecap:round;stroke-linejoin:round;stroke:rgb(0%,0%,0%);stroke-opacity:1;stroke-miterlimit:10;" d="M 78.203125 249.796875 C 82.596875 254.1875 82.596875 261.3125 78.203125 265.703125 C 73.8125 270.096875 66.6875 270.096875 62.296875 265.703125 C 57.903125 261.3125 57.903125 254.1875 62.296875 249.796875 C 66.6875 245.403125 73.8125 245.403125 78.203125 249.796875 " transform="matrix(1.25,0,0,1.25,-8.75,-217.5)"/>
<path style="fill:none;stroke-width:1;stroke-linecap:round;stroke-linejoin:round;stroke:rgb(0%,0%,0%);stroke-opacity:1;stroke-miterlimit:10;" d="M 81.6 221.75 L 100.028125 221.75 " transform="matrix(1.25,0,0,1.25,-8.75,-217.5)"/>
<path style="fill:none;stroke-width:1;stroke-linecap:butt;stroke-linejoin:miter;stroke:rgb(0%,0%,0%);stroke-opacity:1;stroke-miterlimit:10;" d="M 104.028125 221.75 L 100.028125 221.75 M 100.028125 220.25 L 104.028125 221.75 L 100.028125 223.25 " transform="matrix(1.25,0,0,1.25,-8.75,-217.5)"/>
<path style="fill-rule:nonzero;fill:rgb(69.803922%,85.098039%,100%);fill-opacity:1;stroke-width:1;stroke-linecap:round;stroke-linejoin:round;stroke:rgb(0%,0%,0%);stroke-opacity:1;stroke-miterlimit:10;" d="M 78.30625 177.796875 C 82.7 182.1875 82.7 189.3125 78.30625 193.703125 C 73.909375 198.096875 66.7875 198.096875 62.39375 193.703125 C 58 189.3125 58 182.1875 62.39375 177.796875 C 66.7875 173.403125 73.909375 173.403125 78.30625 177.796875 " transform="matrix(1.25,0,0,1.25,-8.75,-217.5)"/>
<path style="fill-rule:nonzero;fill:rgb(69.803922%,85.098039%,100%);fill-opacity:1;stroke-width:1;stroke-linecap:round;stroke-linejoin:round;stroke:rgb(0%,0%,0%);stroke-opacity:1;stroke-miterlimit:10;" d="M 78.30625 213.796875 C 82.7 218.1875 82.7 225.3125 78.30625 229.703125 C 73.909375 234.096875 66.7875 234.096875 62.39375 229.703125 C 58 225.3125 58 218.1875 62.39375 213.796875 C 66.7875 209.403125 73.909375 209.403125 78.30625 213.796875 " transform="matrix(1.25,0,0,1.25,-8.75,-217.5)"/>
<path style="fill:none;stroke-width:1;stroke-linecap:round;stroke-linejoin:round;stroke:rgb(0%,0%,0%);stroke-opacity:1;stroke-miterlimit:10;" d="M 105.925 249.1 L 83.95 232.203125 " transform="matrix(1.25,0,0,1.25,-8.75,-217.5)"/>
<path style="fill:none;stroke-width:1;stroke-linecap:butt;stroke-linejoin:miter;stroke:rgb(0%,0%,0%);stroke-opacity:1;stroke-miterlimit:10;" d="M 80.778125 229.765625 L 83.95 232.203125 M 83.034375 233.39375 L 80.778125 229.765625 L 84.8625 231.015625 " transform="matrix(1.25,0,0,1.25,-8.75,-217.5)"/>
<path style="fill-rule:nonzero;fill:rgb(69.803922%,85.098039%,100%);fill-opacity:1;stroke-width:1;stroke-linecap:round;stroke-linejoin:round;stroke:rgb(0%,0%,0%);stroke-opacity:1;stroke-miterlimit:10;" d="M 176.059375 249.796875 C 180.453125 254.1875 180.453125 261.3125 176.059375 265.703125 C 171.66875 270.096875 164.54375 270.096875 160.15 265.703125 C 155.75625 261.3125 155.75625 254.1875 160.15 249.796875 C 164.54375 245.403125 171.66875 245.403125 176.059375 249.796875 " transform="matrix(1.25,0,0,1.25,-8.75,-217.5)"/>
<path style="fill:none;stroke-width:1;stroke-linecap:round;stroke-linejoin:round;stroke:rgb(0%,0%,0%);stroke-opacity:1;stroke-miterlimit:10;" d="M 179.35625 257.75 L 193.88125 257.75 " transform="matrix(1.25,0,0,1.25,-8.75,-217.5)"/>
<path style="fill:none;stroke-width:1;stroke-linecap:butt;stroke-linejoin:miter;stroke:rgb(0%,0%,0%);stroke-opacity:1;stroke-miterlimit:10;" d="M 197.88125 257.75 L 193.88125 257.75 M 193.88125 256.25 L 197.88125 257.75 L 193.88125 259.25 " transform="matrix(1.25,0,0,1.25,-8.75,-217.5)"/>
<path style="fill-rule:nonzero;fill:rgb(69.803922%,85.098039%,100%);fill-opacity:1;stroke-width:1;stroke-linecap:round;stroke-linejoin:round;stroke:rgb(0%,0%,0%);stroke-opacity:1;stroke-miterlimit:10;" d="M 176.159375 213.796875 C 180.55625 218.1875 180.55625 225.3125 176.159375 229.703125 C 171.765625 234.096875 164.64375 234.096875 160.25 229.703125 C 155.85625 225.3125 155.85625 218.1875 160.25 213.796875 C 164.64375 209.403125 171.765625 209.403125 176.159375 213.796875 " transform="matrix(1.25,0,0,1.25,-8.75,-217.5)"/>
<path style="fill:none;stroke-width:1;stroke-linecap:round;stroke-linejoin:round;stroke:rgb(0%,0%,0%);stroke-opacity:1;stroke-miterlimit:10;" d="M 179.45625 221.75 L 194.08125 221.75 " transform="matrix(1.25,0,0,1.25,-8.75,-217.5)"/>
<path style="fill:none;stroke-width:1;stroke-linecap:butt;stroke-linejoin:miter;stroke:rgb(0%,0%,0%);stroke-opacity:1;stroke-miterlimit:10;" d="M 198.08125 221.75 L 194.08125 221.75 M 194.08125 220.25 L 198.08125 221.75 L 194.08125 223.25 " transform="matrix(1.25,0,0,1.25,-8.75,-217.5)"/>
<path style="fill-rule:nonzero;fill:rgb(69.803922%,85.098039%,100%);fill-opacity:1;stroke-width:1;stroke-linecap:round;stroke-linejoin:round;stroke:rgb(0%,0%,0%);stroke-opacity:1;stroke-miterlimit:10;" d="M 176.159375 177.796875 C 180.55625 182.1875 180.55625 189.3125 176.159375 193.703125 C 171.765625 198.096875 164.64375 198.096875 160.25 193.703125 C 155.85625 189.3125 155.85625 182.1875 160.25 177.796875 C 164.64375 173.403125 171.765625 173.403125 176.159375 177.796875 " transform="matrix(1.25,0,0,1.25,-8.75,-217.5)"/>
<path style="fill:none;stroke-width:1;stroke-linecap:round;stroke-linejoin:round;stroke:rgb(0%,0%,0%);stroke-opacity:1;stroke-miterlimit:10;" d="M 179.45625 185.75 L 193.984375 185.75 " transform="matrix(1.25,0,0,1.25,-8.75,-217.5)"/>
<path style="fill:none;stroke-width:1;stroke-linecap:butt;stroke-linejoin:miter;stroke:rgb(0%,0%,0%);stroke-opacity:1;stroke-miterlimit:10;" d="M 197.984375 185.75 L 193.984375 185.75 M 193.984375 184.25 L 197.984375 185.75 L 193.984375 187.25 " transform="matrix(1.25,0,0,1.25,-8.75,-217.5)"/>
<path style="fill-rule:nonzero;fill:rgb(100%,100%,100%);fill-opacity:1;stroke-width:1;stroke-linecap:round;stroke-linejoin:round;stroke:rgb(0%,0%,0%);stroke-opacity:1;stroke-miterlimit:10;" d="M 242.809375 174.5 L 265.309375 174.5 L 265.309375 197 L 242.809375 197 Z M 242.809375 174.5 " transform="matrix(1.25,0,0,1.25,-8.75,-217.5)"/>
<path style=" stroke:none;fill-rule:nonzero;fill:rgb(0%,0%,0%);fill-opacity:1;" d="M 311.988281 14.53125 L 311.753906 14.472656 C 311.441406 15.117188 311.207031 15.488281 310.835938 15.722656 C 310.289062 16.09375 309.9375 16.152344 308.824219 16.152344 C 307.886719 16.152344 307.632812 16.054688 307.632812 15.703125 C 307.632812 15.546875 307.671875 15.351562 307.75 15.097656 L 309.097656 10.253906 C 309.273438 9.628906 309.566406 9.433594 310.230469 9.394531 L 310.230469 9.21875 L 307.164062 9.21875 L 307.164062 9.394531 C 307.867188 9.433594 308.023438 9.550781 308.023438 9.882812 C 308.023438 10.039062 308.003906 10.273438 307.90625 10.585938 L 306.539062 15.507812 C 306.324219 16.210938 306.246094 16.308594 305.601562 16.386719 L 305.601562 16.5625 L 311.34375 16.5625 Z M 311.988281 14.53125 "/>
<path style="fill:none;stroke-width:1;stroke-linecap:round;stroke-linejoin:round;stroke:rgb(0%,0%,0%);stroke-opacity:1;stroke-miterlimit:10;" d="M 254.2 210.5 L 254.15625 202.9 " transform="matrix(1.25,0,0,1.25,-8.75,-217.5)"/>
<path style="fill:none;stroke-width:1;stroke-linecap:butt;stroke-linejoin:miter;stroke:rgb(0%,0%,0%);stroke-opacity:1;stroke-miterlimit:10;" d="M 254.13125 198.9 L 254.15625 202.9 M 252.65625 202.90625 L 254.13125 198.9 L 255.65625 202.890625 " transform="matrix(1.25,0,0,1.25,-8.75,-217.5)"/>
<path style="fill:none;stroke-width:1;stroke-linecap:round;stroke-linejoin:round;stroke:rgb(0%,0%,0%);stroke-opacity:1;stroke-miterlimit:10;" d="M 59.025 282.5 C 53.175 275.4 47.234375 265.625 47.25 255.25625 C 47.2625 246.05 51.971875 238.325 57.1375 232.621875 " transform="matrix(1.25,0,0,1.25,-8.75,-217.5)"/>
<path style="fill:none;stroke-width:1;stroke-linecap:butt;stroke-linejoin:miter;stroke:rgb(0%,0%,0%);stroke-opacity:1;stroke-miterlimit:10;" d="M 59.971875 229.80625 L 57.1375 232.621875 M 56.078125 231.559375 L 59.971875 229.80625 L 58.190625 233.6875 " transform="matrix(1.25,0,0,1.25,-8.75,-217.5)"/>
<path style="fill:none;stroke-width:1;stroke-linecap:round;stroke-linejoin:round;stroke:rgb(0%,0%,0%);stroke-opacity:1;stroke-miterlimit:10;" d="M 156.15625 282.5 C 150.3 275.734375 144.50625 266.49375 144.50625 256.409375 C 144.50625 246.934375 149.621875 238.78125 155.1 232.76875 " transform="matrix(1.25,0,0,1.25,-8.75,-217.5)"/>
<path style="fill:none;stroke-width:1;stroke-linecap:butt;stroke-linejoin:miter;stroke:rgb(0%,0%,0%);stroke-opacity:1;stroke-miterlimit:10;" d="M 157.934375 229.940625 L 155.1 232.765625 M 154.04375 231.703125 L 157.934375 229.940625 L 156.159375 233.828125 " transform="matrix(1.25,0,0,1.25,-8.75,-217.5)"/>
</g>
</svg>
